<svg xmlns="http://www.w3.org/2000/svg" viewBox="0 0 582 377" width="582" height="377">
	<style>
		tspan { white-space:pre }
		.shp0 { fill: none;stroke: #d8d8d8;stroke-linecap:round } 
		.shp1 { fill: #333330 } 
		.shp2 { fill: #f0b021 } 
		.shp3 { opacity: 0.702;fill: #f0b021 } 
		.shp4 { fill: #ffc200 } 
		.shp5 { opacity: 0.502;fill: #ffc200 } 
		.shp6 { fill: #fccf5e } 
		.shp7 { fill: #d4524f } 
		.shp8 { fill: #ff5c57 } 
		.shp9 { opacity: 0.8;fill: #ff5c57 } 
		.shp10 { opacity: 0.702;fill: #ff7370 } 
		.shp11 { opacity: 0.502;fill: #ff7370 } 
	</style>
	<path id="Layer" class="shp0" d="M132.83 180.17L105 180.17" />
	<path id="Layer" fill-rule="evenodd" class="shp1" d="M9.5 171.78L6.14 171.78L6.14 181.67L3.89 181.67L3.89 171.78L0.53 171.78L0.53 169.77L9.5 169.77L9.5 171.78ZM17.39 178.99C17.05 180.74 15.59 181.84 13.43 181.84C10.9 181.84 9.06 180.13 9.06 177.51C9.06 174.7 11 173 13.35 173C15.44 173 17.38 174.33 17.38 177.37C17.38 177.58 17.36 177.76 17.34 178L11.22 178C11.31 179.22 12.11 180.11 13.43 180.11C14.38 180.11 15.06 179.72 15.3 178.99L17.39 178.99ZM11.24 176.54L15.3 176.54C15.25 175.49 14.47 174.74 13.35 174.74C12.17 174.74 11.39 175.52 11.24 176.54ZM18.43 177.46C18.43 174.79 20.36 173 22.85 173C24.82 173 26.69 174.06 26.96 176.28L24.78 176.28C24.6 175.5 23.87 174.89 22.85 174.89C21.55 174.89 20.6 175.94 20.6 177.46C20.6 178.95 21.49 179.96 22.88 179.96C23.87 179.96 24.53 179.51 24.8 178.73L26.99 178.73C26.7 180.64 25.09 181.84 22.88 181.84C20.23 181.84 18.43 180.02 18.43 177.46ZM36.4 176.52L36.4 181.67L34.23 181.67L34.23 176.96C34.23 175.57 33.43 174.89 32.41 174.89C31.37 174.89 30.45 175.55 30.45 177.07L30.45 181.67L28.28 181.67L28.28 169.6L30.45 169.6L30.45 174.18L30.59 174.18C31.1 173.51 31.81 173 33.09 173C35.11 173 36.4 174.29 36.4 176.52ZM50.59 181.67L49.27 180.23C48.37 181.18 47.31 181.84 45.77 181.84C43.88 181.84 42.4 180.74 42.4 178.95C42.4 177.3 43.45 176.42 44.51 175.72L44.88 175.49L44.87 175.47C44.1 174.63 43.27 173.82 43.27 172.51C43.27 170.86 44.73 169.6 46.68 169.6C48.66 169.6 50.08 170.67 50.08 172.36C50.08 173.7 49.27 174.53 48.1 175.37L47.53 175.76L49.17 177.54L50.54 175.82L52.74 175.82L50.37 178.88L52.91 181.67L50.59 181.67ZM46.36 174.48L46.84 174.16C47.59 173.67 48.13 173.21 48.13 172.49C48.13 171.73 47.48 171.27 46.7 171.27C45.85 171.27 45.26 171.8 45.26 172.54C45.26 173.28 45.7 173.77 46.34 174.45L46.36 174.48ZM48.04 178.92L46.09 176.79L45.73 177.03C45.02 177.54 44.49 178.03 44.49 178.8C44.49 179.55 45.1 180.07 45.92 180.07C46.79 180.07 47.42 179.65 48.04 178.92ZM66.95 169.6L66.95 181.67L65.18 181.67L65 180.67L64.84 180.67C64.44 181.21 63.64 181.84 62.31 181.84C60.03 181.84 58.32 180.11 58.32 177.41C58.32 174.63 60.08 173 62.31 173C63.47 173 64.32 173.46 64.78 173.97L64.78 169.6L66.95 169.6ZM64.78 177.41C64.78 175.91 63.94 174.89 62.65 174.89C61.36 174.89 60.49 175.91 60.49 177.41C60.49 178.94 61.36 179.96 62.65 179.96C63.94 179.96 64.78 178.94 64.78 177.41ZM76.77 180.04L76.77 181.67L75.85 181.67C75.05 181.67 74.43 181.44 74.14 180.65C73.56 181.38 72.67 181.84 71.33 181.84C69.6 181.84 68.32 181.03 68.32 179.34C68.32 177.71 69.56 176.91 71.13 176.76L73.78 176.49L73.78 176.13C73.78 175.2 73.18 174.74 72.35 174.74C71.43 174.74 70.96 175.25 70.82 176.01L68.65 176.01C68.82 174.24 70.18 173 72.35 173C74.34 173 75.96 174.01 75.96 176.28L75.96 179.4C75.96 179.84 76.16 180.04 76.57 180.04L76.77 180.04ZM73.78 177.98L71.88 178.19C71.09 178.27 70.5 178.6 70.5 179.26C70.5 179.94 71.03 180.18 71.71 180.18C72.62 180.18 73.78 179.74 73.78 178.39L73.78 177.98ZM78.62 179.36L78.62 174.89L76.8 174.89L76.8 173.17L77.38 173.17C78.41 173.17 78.82 172.8 78.82 171.88L78.82 170.86L80.79 170.86L80.79 173.17L83.02 173.17L83.02 174.89L80.79 174.89L80.79 179.07C80.79 179.55 80.91 180.13 81.93 180.13C82.19 180.13 82.51 180.07 82.77 180.01L82.77 181.66C82.39 181.74 81.88 181.84 81.27 181.84C78.89 181.84 78.62 180.3 78.62 179.36ZM92.77 180.07L92.77 181.57C92.45 181.69 92.14 181.76 91.63 181.76C90.71 181.76 89.92 181.42 89.56 180.6C89 181.37 88.08 181.84 86.72 181.84C84.99 181.84 83.71 181.03 83.71 179.34C83.71 177.71 84.95 176.91 86.52 176.76L89.17 176.49L89.17 176.13C89.17 175.2 88.57 174.74 87.74 174.74C86.82 174.74 86.35 175.25 86.21 176.01L84.03 176.01C84.2 174.24 85.56 173 87.74 173C89.73 173 91.34 174.01 91.34 176.28L91.34 179.29C91.34 179.92 91.67 180.18 92.19 180.18C92.38 180.18 92.57 180.14 92.77 180.07ZM89.17 177.98L87.26 178.19C86.48 178.27 85.89 178.6 85.89 179.26C85.89 179.94 86.41 180.18 87.09 180.18C88.01 180.18 89.17 179.74 89.17 178.39L89.17 177.98Z" />
	<path id="Layer" fill-rule="evenodd" class="shp2" d="M6 206.67C8.76 206.67 11 204.43 11 201.67C11 198.91 8.76 196.67 6 196.67C3.24 196.67 1 198.91 1 201.67C1 204.43 3.24 206.67 6 206.67Z" />
	<path id="Layer" fill-rule="evenodd" class="shp3" d="M6 227.67C8.76 227.67 11 225.43 11 222.67C11 219.91 8.76 217.67 6 217.67C3.24 217.67 1 219.91 1 222.67C1 225.43 3.24 227.67 6 227.67Z" />
	<path id="Layer" fill-rule="evenodd" class="shp4" d="M6 248.67C8.76 248.67 11 246.43 11 243.67C11 240.91 8.76 238.67 6 238.67C3.24 238.67 1 240.91 1 243.67C1 246.43 3.24 248.67 6 248.67Z" />
	<path id="Layer" fill-rule="evenodd" class="shp5" d="M6 269.67C8.76 269.67 11 267.43 11 264.67C11 261.91 8.76 259.67 6 259.67C3.24 259.67 1 261.91 1 264.67C1 267.43 3.24 269.67 6 269.67Z" />
	<path id="Layer" fill-rule="evenodd" class="shp6" d="M6 290.67C8.76 290.67 11 288.43 11 285.67C11 282.91 8.76 280.67 6 280.67C3.24 280.67 1 282.91 1 285.67C1 288.43 3.24 290.67 6 290.67Z" />
	<path id="Layer" fill-rule="evenodd" class="shp1" d="M29.36 204.81C29.36 206.62 28.16 207.67 26.16 207.67L22.3 207.67L22.3 197.17L26.13 197.17C28.13 197.17 29.09 198.22 29.09 199.78C29.09 201.12 28.38 201.76 27.6 202.12L27.6 202.2C28.44 202.51 29.36 203.23 29.36 204.81ZM23.64 201.7L25.96 201.7C27.11 201.7 27.73 201.01 27.73 199.96C27.73 198.91 27.05 198.3 26.01 198.3L23.64 198.3L23.64 201.7ZM27.98 204.73C27.98 203.62 27.23 202.83 26.04 202.83L23.64 202.83L23.64 206.55L26.05 206.55C27.25 206.55 27.98 205.83 27.98 204.73ZM37.4 206.65L37.4 207.67L36.8 207.67C36.09 207.67 35.63 207.43 35.46 206.71C34.94 207.39 34.1 207.82 32.99 207.82C31.59 207.82 30.51 207.15 30.51 205.68C30.51 204.27 31.59 203.53 33.06 203.38L35.3 203.17L35.3 202.75C35.3 201.73 34.74 201.1 33.74 201.1C32.72 201.1 32.27 201.72 32.12 202.53L30.81 202.53C30.96 201.09 32.01 200.02 33.74 200.02C35.42 200.02 36.62 200.97 36.62 202.78L36.62 206.04C36.62 206.47 36.81 206.65 37.2 206.65L37.4 206.65ZM35.3 204.13L33.48 204.31C32.51 204.4 31.83 204.84 31.83 205.63C31.83 206.47 32.45 206.77 33.17 206.77C34.16 206.77 35.3 206.25 35.3 204.79L35.3 204.13ZM38.2 203.97C38.2 201.69 39.76 200.02 41.92 200.02C43.58 200.02 45.04 200.97 45.31 202.71L43.99 202.71C43.79 201.88 43.04 201.18 41.92 201.18C40.51 201.18 39.52 202.39 39.52 203.97C39.52 205.48 40.43 206.67 41.93 206.67C43.04 206.67 43.73 206.1 44.02 205.23L45.34 205.23C45.05 206.8 43.73 207.82 41.93 207.82C39.65 207.82 38.2 206.16 38.2 203.97ZM49.99 203.2L53.06 207.67L51.59 207.67L49.09 204.09L48.07 205.09L48.07 207.67L46.76 207.67L46.76 197.02L48.07 197.02L48.07 203.4L48.17 203.4L51.46 200.17L53.06 200.17L49.99 203.2ZM58.52 202.44L58.52 203.58L53.01 203.58L53.01 202.44L58.52 202.44ZM67.14 206.46L67.14 207.67L60.36 207.67L60.36 197.17L66.99 197.17L66.99 198.39L61.69 198.39L61.69 201.75L66.36 201.75L66.36 202.93L61.69 202.93L61.69 206.46L67.14 206.46ZM68.63 200.17L69.82 200.17L69.94 201.07L70.04 201.07C70.45 200.52 71.05 200.02 72.22 200.02C73.82 200.02 74.95 201.04 74.95 202.96L74.95 207.67L73.64 207.67L73.64 203.25C73.64 201.81 72.86 201.18 71.89 201.18C70.87 201.18 69.94 201.84 69.94 203.4L69.94 207.67L68.63 207.67L68.63 200.17ZM83.61 197.02L83.61 207.67L82.53 207.67L82.41 206.61L82.32 206.61C81.94 207.13 81.21 207.82 79.9 207.82C77.89 207.82 76.45 206.25 76.45 203.91C76.45 201.52 77.92 200.02 79.9 200.02C81.16 200.02 81.93 200.64 82.3 201.16L82.3 197.02L83.61 197.02ZM82.3 203.91C82.3 202.29 81.42 201.18 80.07 201.18C78.7 201.18 77.76 202.29 77.76 203.91C77.76 205.56 78.7 206.67 80.07 206.67C81.42 206.67 82.3 205.56 82.3 203.91Z" />
	<path id="Layer" fill-rule="evenodd" class="shp1" d="M23.67 219.43L23.67 222.9L28.09 222.9L28.09 224.1L23.67 224.1L23.67 228.67L22.3 228.67L22.3 218.17L28.74 218.17L28.74 219.43L23.67 219.43ZM29.79 221.17L30.97 221.17L31.09 222.21L31.2 222.21C31.59 221.53 32.11 221.02 33.34 221.02L33.78 221.02L33.78 222.34C33.55 222.31 33.34 222.31 33.1 222.31C31.8 222.31 31.09 223.33 31.09 224.74L31.09 228.67L29.79 228.67L29.79 221.17ZM34.27 224.92C34.27 222.67 35.85 221.02 38.04 221.02C40.2 221.02 41.82 222.69 41.82 224.92C41.82 227.17 40.21 228.82 38.04 228.82C35.88 228.82 34.27 227.14 34.27 224.92ZM40.51 224.92C40.51 223.42 39.51 222.18 38.04 222.18C36.55 222.18 35.59 223.42 35.59 224.92C35.59 226.41 36.57 227.67 38.04 227.67C39.51 227.67 40.51 226.41 40.51 224.92ZM43.35 221.17L44.53 221.17L44.65 222.07L44.76 222.07C45.16 221.52 45.76 221.02 46.93 221.02C48.54 221.02 49.66 222.04 49.66 223.96L49.66 228.67L48.36 228.67L48.36 224.25C48.36 222.81 47.58 222.18 46.6 222.18C45.58 222.18 44.65 222.84 44.65 224.4L44.65 228.67L43.35 228.67L43.35 221.17ZM52.15 226.98L52.15 222.24L50.56 222.24L50.56 221.17L51.07 221.17C51.95 221.17 52.27 220.87 52.27 220.06L52.27 219.13L53.47 219.13L53.47 221.17L55.34 221.17L55.34 222.24L53.47 222.24L53.47 226.8C53.47 227.34 53.68 227.74 54.41 227.74C54.65 227.74 54.92 227.7 55.16 227.62L55.16 228.66C54.89 228.73 54.53 228.82 54.07 228.82C52.51 228.82 52.15 227.85 52.15 226.98ZM61.25 223.44L61.25 224.58L55.74 224.58L55.74 223.44L61.25 223.44ZM69.87 227.46L69.87 228.67L63.09 228.67L63.09 218.17L69.72 218.17L69.72 219.39L64.42 219.39L64.42 222.75L69.09 222.75L69.09 223.93L64.42 223.93L64.42 227.46L69.87 227.46ZM71.36 221.17L72.55 221.17L72.67 222.07L72.77 222.07C73.18 221.52 73.78 221.02 74.95 221.02C76.55 221.02 77.68 222.04 77.68 223.96L77.68 228.67L76.37 228.67L76.37 224.25C76.37 222.81 75.59 222.18 74.62 222.18C73.6 222.18 72.67 222.84 72.67 224.4L72.67 228.67L71.36 228.67L71.36 221.17ZM86.34 218.02L86.34 228.67L85.26 228.67L85.14 227.61L85.05 227.61C84.67 228.13 83.94 228.82 82.63 228.82C80.62 228.82 79.18 227.25 79.18 224.91C79.18 222.52 80.65 221.02 82.63 221.02C83.89 221.02 84.66 221.64 85.03 222.16L85.03 218.02L86.34 218.02ZM85.03 224.91C85.03 223.29 84.15 222.18 82.8 222.18C81.43 222.18 80.49 223.29 80.49 224.91C80.49 226.56 81.43 227.67 82.8 227.67C84.15 227.67 85.03 226.56 85.03 224.91Z" />
	<path id="Layer" fill-rule="evenodd" class="shp1" d="M32.85 249.67L31.52 249.67L31.52 241.6L31.43 241.6L28.34 248.47L26.86 248.47L23.76 241.6L23.64 241.6L23.64 249.67L22.3 249.67L22.3 239.17L24.05 239.17L27.54 247.05L27.64 247.05L31.13 239.17L32.85 239.17L32.85 249.67ZM34.63 245.92C34.63 243.67 36.21 242.02 38.4 242.02C40.56 242.02 42.18 243.69 42.18 245.92C42.18 248.17 40.57 249.82 38.4 249.82C36.24 249.82 34.63 248.14 34.63 245.92ZM40.87 245.92C40.87 244.42 39.87 243.18 38.4 243.18C36.91 243.18 35.95 244.42 35.95 245.92C35.95 247.41 36.93 248.67 38.4 248.67C39.87 248.67 40.87 247.41 40.87 245.92ZM50.88 245.91C50.88 248.25 49.44 249.82 47.43 249.82C46.13 249.82 45.39 249.13 45.02 248.61L44.93 248.61L44.81 249.67L43.73 249.67L43.73 239.02L45.03 239.02L45.03 243.16C45.41 242.64 46.17 242.02 47.43 242.02C49.41 242.02 50.88 243.52 50.88 245.91ZM49.58 245.91C49.58 244.29 48.63 243.18 47.27 243.18C45.92 243.18 45.03 244.29 45.03 245.91C45.03 247.56 45.92 248.67 47.27 248.67C48.63 248.67 49.58 247.56 49.58 245.91ZM52.21 240.1C52.21 239.62 52.61 239.25 53.09 239.25C53.56 239.25 53.95 239.62 53.95 240.1C53.95 240.58 53.56 240.97 53.09 240.97C52.61 240.97 52.21 240.58 52.21 240.1ZM52.43 242.17L53.74 242.17L53.74 249.67L52.43 249.67L52.43 242.17ZM55.57 239.02L56.88 239.02L56.88 249.67L55.57 249.67L55.57 239.02ZM65.3 246.24L59.7 246.24C59.78 247.72 60.65 248.74 62.04 248.74C63.02 248.74 63.75 248.31 64.01 247.48L65.28 247.48C64.95 248.97 63.71 249.82 62.04 249.82C59.91 249.82 58.4 248.31 58.4 246C58.4 243.57 59.96 242.02 61.98 242.02C63.8 242.02 65.33 243.27 65.33 245.77C65.33 245.92 65.31 246.06 65.3 246.24ZM59.72 245.28L64.05 245.28C64.04 243.99 63.2 243.1 61.98 243.1C60.72 243.1 59.85 244.06 59.72 245.28Z" />
	<path id="Layer" fill-rule="evenodd" class="shp1" d="M30.57 265.42C30.57 268.47 28.95 270.67 25.55 270.67L22.3 270.67L22.3 260.17L25.55 260.17C28.89 260.17 30.57 262.3 30.57 265.42ZM29.18 265.39C29.18 263.13 28.17 261.4 25.47 261.4L23.67 261.4L23.67 269.44L25.47 269.44C28.17 269.44 29.18 267.67 29.18 265.39ZM38.94 269.65L38.94 270.67L38.34 270.67C37.63 270.67 37.17 270.43 37 269.71C36.48 270.39 35.64 270.82 34.53 270.82C33.13 270.82 32.05 270.15 32.05 268.68C32.05 267.27 33.13 266.53 34.6 266.38L36.84 266.17L36.84 265.75C36.84 264.73 36.28 264.1 35.28 264.1C34.26 264.1 33.81 264.72 33.66 265.53L32.35 265.53C32.5 264.09 33.55 263.02 35.28 263.02C36.96 263.02 38.16 263.97 38.16 265.78L38.16 269.04C38.16 269.47 38.35 269.65 38.74 269.65L38.94 269.65ZM36.84 267.13L35.02 267.31C34.05 267.4 33.37 267.84 33.37 268.63C33.37 269.47 33.99 269.77 34.71 269.77C35.7 269.77 36.84 269.25 36.84 267.79L36.84 267.13ZM40.7 268.98L40.7 264.24L39.11 264.24L39.11 263.17L39.62 263.17C40.5 263.17 40.82 262.87 40.82 262.06L40.82 261.13L42.02 261.13L42.02 263.17L43.89 263.17L43.89 264.24L42.02 264.24L42.02 268.8C42.02 269.34 42.23 269.74 42.96 269.74C43.2 269.74 43.47 269.7 43.71 269.62L43.71 270.66C43.44 270.73 43.08 270.82 42.62 270.82C41.06 270.82 40.7 269.85 40.7 268.98ZM52.11 269.64L52.11 270.58C51.87 270.67 51.63 270.75 51.24 270.75C50.51 270.75 49.86 270.43 49.68 269.68C49.17 270.37 48.3 270.82 47.18 270.82C45.78 270.82 44.7 270.15 44.7 268.68C44.7 267.27 45.78 266.53 47.25 266.38L49.49 266.17L49.49 265.75C49.49 264.73 48.93 264.1 47.93 264.1C46.91 264.1 46.46 264.72 46.31 265.53L45 265.53C45.15 264.09 46.2 263.02 47.93 263.02C49.61 263.02 50.81 263.97 50.81 265.78L50.81 268.93C50.81 269.55 51.09 269.76 51.56 269.76C51.75 269.76 51.92 269.71 52.11 269.64ZM49.49 267.13L47.67 267.31C46.7 267.4 46.02 267.84 46.02 268.63C46.02 269.47 46.64 269.77 47.36 269.77C48.35 269.77 49.49 269.25 49.49 267.79L49.49 267.13Z" />
	<path id="Layer" fill-rule="evenodd" class="shp1" d="M30.57 286.42C30.57 289.47 28.95 291.67 25.55 291.67L22.3 291.67L22.3 281.17L25.55 281.17C28.89 281.17 30.57 283.3 30.57 286.42ZM29.18 286.39C29.18 284.13 28.17 282.4 25.47 282.4L23.67 282.4L23.67 290.44L25.47 290.44C28.17 290.44 29.18 288.67 29.18 286.39ZM38.9 288.24L33.3 288.24C33.38 289.72 34.24 290.74 35.64 290.74C36.62 290.74 37.35 290.31 37.6 289.48L38.88 289.48C38.55 290.97 37.3 291.82 35.64 291.82C33.51 291.82 32 290.31 32 288C32 285.57 33.55 284.02 35.58 284.02C37.4 284.02 38.92 285.27 38.92 287.77C38.92 287.92 38.91 288.06 38.9 288.24ZM33.31 287.28L37.65 287.28C37.63 285.99 36.8 285.1 35.58 285.1C34.32 285.1 33.45 286.06 33.31 287.28ZM39.46 284.17L40.82 284.17L43.07 290.31L43.18 290.31L45.43 284.17L46.79 284.17L43.94 291.67L42.31 291.67L39.46 284.17ZM47.79 286.42C47.79 283.35 50.01 281.02 52.98 281.02C55.92 281.02 58.15 283.35 58.15 286.42C58.15 289.48 55.95 291.82 52.98 291.82C50.01 291.82 47.79 289.51 47.79 286.42ZM56.77 286.42C56.77 284.08 55.14 282.28 52.98 282.28C50.8 282.28 49.17 284.08 49.17 286.42C49.17 288.76 50.8 290.56 52.98 290.56C55.15 290.56 56.77 288.76 56.77 286.42ZM67.14 287.94C67.14 290.32 65.67 291.82 63.69 291.82C62.43 291.82 61.66 291.21 61.29 290.68L61.29 294.67L59.98 294.67L59.98 284.17L61.06 284.17L61.18 285.24L61.27 285.24C61.65 284.71 62.38 284.02 63.69 284.02C65.7 284.02 67.14 285.6 67.14 287.94ZM65.83 287.94C65.83 286.29 64.89 285.18 63.52 285.18C62.17 285.18 61.29 286.29 61.29 287.94C61.29 289.56 62.17 290.67 63.52 290.67C64.89 290.67 65.83 289.56 65.83 287.94ZM68.24 289.39L69.52 289.39C69.62 290.43 70.31 290.79 71.18 290.79C71.92 290.79 72.58 290.49 72.58 289.74C72.58 288.91 71.78 288.6 71.03 288.37L70.52 288.24C69.64 287.98 68.48 287.58 68.48 286.17C68.48 284.82 69.67 284.02 71.02 284.02C72.82 284.02 73.64 285.1 73.7 286.17L72.43 286.17C72.37 285.51 71.84 285.06 71.03 285.06C70.34 285.06 69.74 285.4 69.74 286.11C69.74 286.83 70.42 287.04 71.15 287.26L71.63 287.41C72.71 287.71 73.84 288.25 73.84 289.71C73.84 291.18 72.62 291.82 71.18 291.82C69.26 291.82 68.32 290.8 68.24 289.39Z" />
	<path id="Layer" fill-rule="evenodd" class="shp6" d="M144.32 263.9C151.75 289.81 165.03 312.64 182.3 331.14C190.53 339.96 199.67 347.8 209.52 354.51C211.9 356.13 215.13 355.3 216.53 352.78L291.99 216.55L234.62 79.55C232.39 74.22 226.1 71.87 221.1 74.76C156.87 111.97 122.94 189.34 144.32 263.9Z" />
	<path id="Layer" fill-rule="evenodd" class="shp5" d="M155.36 292.29C162.6 307 172.14 320.11 182.88 331.76L291.99 216.55C291.99 216.55 200.16 266.07 154.88 291.28L155.36 292.29Z" />
	<path id="Layer" fill-rule="evenodd" class="shp4" d="M144.2 263.07C147 272.85 150.54 282.43 154.88 291.28C154.9 291.32 272.23 227.33 289.8 217.75C291.22 216.97 291.99 216.55 291.99 216.55L139.1 238.59C140.17 246.74 141.86 254.92 144.2 263.07Z" />
	<path id="Layer" fill-rule="evenodd" class="shp3" d="M291.99 216.55L156.85 140.93C156.57 141.48 156.19 141.96 155.91 142.51C141.37 171.5 134.92 204.88 139.1 238.59C139.16 239.1 139.27 239.67 139.34 240.18L291.99 216.55Z" />
	<path id="Layer" fill-rule="evenodd" class="shp2" d="M291.99 216.55L232.41 74.53C231.3 71.87 228.17 70.7 225.63 72.06C195.3 88.22 171.25 113.1 155.91 142.51L291.99 216.55Z" />
	<path id="Layer" fill-rule="evenodd" class="shp7" d="M299.94 353.35C278.98 353.08 258.35 347.99 239.72 338.58C237.26 337.33 236.38 334.28 237.72 331.86L301.61 216.34L299.94 353.35Z" />
	<path id="Layer" fill-rule="evenodd" class="shp8" d="M366.98 336.74C345.64 348.32 322.6 353.65 299.94 353.35L301.61 216.34L437.28 235.38C431.42 276.9 406.65 315.19 366.98 336.74Z" />
	<path id="Layer" fill-rule="evenodd" class="shp9" d="M368.3 96.65C390.26 108.86 409.13 127.25 422 150.97C436.56 177.79 441.25 207.32 437.28 235.38L301.61 216.34L368.3 96.65Z" />
	<path id="Layer" fill-rule="evenodd" class="shp10" d="M303.4 79.32C326.14 79.64 348.48 85.63 368.3 96.65L301.61 216.34L303.4 79.32Z" />
	<path id="Layer" class="shp11" d="M303.4 79.32C287.72 79.1 271.86 81.58 256.5 86.95C253.9 87.86 252.63 90.77 253.64 93.34L301.61 216.34L303.4 79.32Z" />
	<path id="Layer" fill-rule="evenodd" class="shp1" d="M460.02 308.67L457.83 308.67L457.83 300.77L457.7 300.77L454.74 307.31L452.48 307.31L449.5 300.77L449.37 300.77L449.37 308.67L447.17 308.67L447.17 296.77L449.93 296.77L453.55 304.93L453.68 304.93L457.29 296.77L460.02 296.77L460.02 308.67ZM470.27 307.04L470.27 308.67L469.35 308.67C468.55 308.67 467.92 308.44 467.63 307.65C467.05 308.38 466.17 308.84 464.83 308.84C463.09 308.84 461.82 308.03 461.82 306.34C461.82 304.71 463.06 303.91 464.62 303.76L467.27 303.49L467.27 303.13C467.27 302.2 466.68 301.74 465.85 301.74C464.93 301.74 464.45 302.25 464.32 303.01L462.14 303.01C462.31 301.24 463.67 300 465.85 300C467.83 300 469.45 301.01 469.45 303.28L469.45 306.39C469.45 306.84 469.65 307.04 470.06 307.04L470.27 307.04ZM467.27 304.98L465.37 305.19C464.59 305.27 463.99 305.6 463.99 306.26C463.99 306.94 464.52 307.18 465.2 307.18C466.12 307.18 467.27 306.74 467.27 305.39L467.27 304.98ZM471.34 300.17L473.31 300.17L473.51 301.38L473.65 301.38C474.18 300.53 474.75 300 476.18 300L476.8 300L476.8 302.18C476.49 302.13 476.18 302.11 475.88 302.11C474.01 302.11 473.51 303.49 473.51 304.71L473.51 308.67L471.34 308.67L471.34 300.17ZM482.25 303.56L485.72 308.67L483.32 308.67L480.79 304.98L479.9 305.83L479.9 308.67L477.73 308.67L477.73 296.6L479.9 296.6L479.9 303.11L480.04 303.11L483.1 300.17L485.72 300.17L482.25 303.56ZM494.15 305.99C493.81 307.74 492.35 308.84 490.19 308.84C487.66 308.84 485.82 307.13 485.82 304.51C485.82 301.7 487.76 300 490.11 300C492.2 300 494.14 301.33 494.14 304.37C494.14 304.58 494.12 304.76 494.1 305L487.98 305C488.07 306.23 488.87 307.11 490.19 307.11C491.14 307.11 491.82 306.72 492.06 305.99L494.15 305.99ZM488 303.54L492.06 303.54C492.01 302.49 491.23 301.74 490.11 301.74C488.94 301.74 488.15 302.52 488 303.54ZM496.51 306.36L496.51 301.89L494.69 301.89L494.69 300.17L495.27 300.17C496.31 300.17 496.72 299.8 496.72 298.88L496.72 297.86L498.69 297.86L498.69 300.17L500.92 300.17L500.92 301.89L498.69 301.89L498.69 306.07C498.69 306.55 498.81 307.13 499.83 307.13C500.08 307.13 500.41 307.07 500.66 307.01L500.66 308.66C500.29 308.74 499.78 308.84 499.17 308.84C496.79 308.84 496.51 307.3 496.51 306.36ZM501.78 297.78C501.78 297.03 502.4 296.45 503.12 296.45C503.83 296.45 504.43 297.03 504.43 297.78C504.43 298.47 503.83 299.08 503.12 299.08C502.4 299.08 501.78 298.47 501.78 297.78ZM502.03 300.17L504.21 300.17L504.21 308.67L502.03 308.67L502.03 300.17ZM505.9 300.17L507.89 300.17L508.07 301.18L508.21 301.18C508.72 300.51 509.43 300 510.71 300C512.73 300 514.02 301.3 514.02 303.52L514.02 308.67L511.85 308.67L511.85 303.96C511.85 302.57 511.05 301.89 510.03 301.89C508.99 301.89 508.07 302.55 508.07 304.07L508.07 308.67L505.9 308.67L505.9 300.17ZM522.26 301.35C522.62 301.81 522.81 302.35 522.81 302.94C522.81 304.75 521.26 305.8 519.24 305.8C518.71 305.8 518.23 305.73 517.81 305.61C517.54 305.75 517.4 305.94 517.4 306.17C517.4 306.67 517.94 306.82 518.52 306.82L520.19 306.82C522.23 306.82 523.28 307.81 523.28 309.34C523.28 311.15 521.75 312.24 519.29 312.24C516.58 312.24 515.33 310.9 515.16 309.39L516.45 308.25C515.85 307.93 515.48 307.36 515.48 306.68C515.48 305.88 516.01 305.36 516.62 305.02C515.99 304.52 515.62 303.83 515.62 302.94C515.62 301.28 516.96 300 519.13 300C519.88 300 520.56 300.16 521.11 300.43C521.65 300.16 522.23 299.68 522.57 299.22L523.64 300.41C523.37 300.7 522.84 301.07 522.26 301.35ZM520.73 302.91C520.73 302.13 520.17 301.57 519.24 301.57C518.28 301.57 517.69 302.13 517.69 302.91C517.69 303.66 518.28 304.22 519.24 304.22C520.17 304.22 520.73 303.66 520.73 302.91ZM519.92 308.52L518.37 308.52L517.25 309.47C517.43 310.07 518.06 310.61 519.3 310.61C520.34 310.61 521.21 310.24 521.21 309.45C521.21 308.74 520.54 308.52 519.92 308.52ZM537.18 308.67L535.86 307.23C534.96 308.18 533.9 308.84 532.35 308.84C530.47 308.84 528.99 307.74 528.99 305.95C528.99 304.3 530.04 303.42 531.1 302.72L531.47 302.49L531.45 302.47C530.69 301.63 529.86 300.82 529.86 299.51C529.86 297.86 531.32 296.6 533.27 296.6C535.24 296.6 536.67 297.67 536.67 299.36C536.67 300.7 535.86 301.53 534.68 302.37L534.12 302.76L535.75 304.54L537.13 302.82L539.32 302.82L536.96 305.88L539.49 308.67L537.18 308.67ZM532.95 301.48L533.42 301.16C534.17 300.67 534.72 300.21 534.72 299.49C534.72 298.73 534.07 298.27 533.29 298.27C532.44 298.27 531.84 298.8 531.84 299.54C531.84 300.27 532.29 300.77 532.93 301.45L532.95 301.48ZM534.63 305.92L532.68 303.79L532.32 304.03C531.61 304.54 531.08 305.04 531.08 305.8C531.08 306.55 531.69 307.07 532.51 307.07C533.37 307.07 534 306.65 534.63 305.92ZM446.7 325.46C446.7 322.79 448.63 321 451.12 321C453.09 321 454.96 322.06 455.23 324.28L453.06 324.28C452.87 323.5 452.14 322.89 451.12 322.89C449.82 322.89 448.87 323.94 448.87 325.46C448.87 326.95 449.76 327.96 451.15 327.96C452.14 327.96 452.8 327.51 453.07 326.73L455.26 326.73C454.98 328.64 453.36 329.84 451.15 329.84C448.5 329.84 446.7 328.02 446.7 325.46ZM456.13 325.41C456.13 322.79 458.06 321 460.61 321C463.16 321 465.1 322.81 465.1 325.41C465.1 328.04 463.18 329.84 460.61 329.84C458.08 329.84 456.13 328.02 456.13 325.41ZM462.94 325.41C462.94 324 462.01 322.89 460.61 322.89C459.22 322.89 458.3 324 458.3 325.41C458.3 326.83 459.22 327.96 460.61 327.96C462.02 327.96 462.94 326.83 462.94 325.41ZM466.47 321.17L468.46 321.17L468.65 322.18L468.79 322.18C469.24 321.55 469.96 321 471.11 321C472.46 321 473.05 321.73 473.34 322.35L473.48 322.35C473.94 321.68 474.68 321 476.13 321C477.88 321 479 322.06 479 324.11L479 329.67L476.83 329.67L476.83 324.52C476.83 323.43 476.18 322.89 475.36 322.89C474.45 322.89 473.82 323.57 473.82 324.64L473.82 329.67L471.64 329.67L471.64 324.59C471.64 323.47 471.01 322.89 470.2 322.89C469.41 322.89 468.65 323.45 468.65 324.62L468.65 329.67L466.47 329.67L466.47 321.17ZM480.68 321.17L482.67 321.17L482.86 322.18L483 322.18C483.45 321.55 484.17 321 485.32 321C486.67 321 487.26 321.73 487.55 322.35L487.69 322.35C488.15 321.68 488.89 321 490.34 321C492.09 321 493.21 322.06 493.21 324.11L493.21 329.67L491.04 329.67L491.04 324.52C491.04 323.43 490.39 322.89 489.57 322.89C488.66 322.89 488.03 323.57 488.03 324.64L488.03 329.67L485.85 329.67L485.85 324.59C485.85 323.47 485.22 322.89 484.41 322.89C483.63 322.89 482.86 323.45 482.86 324.62L482.86 329.67L480.68 329.67L480.68 321.17ZM502.95 329.67L500.96 329.67L500.78 328.67L500.64 328.67C500.13 329.33 499.42 329.84 498.14 329.84C496.12 329.84 494.83 328.55 494.83 326.32L494.83 321.17L497 321.17L497 325.88C497 327.28 497.8 327.96 498.84 327.96C499.86 327.96 500.78 327.29 500.78 325.78L500.78 321.17L502.95 321.17L502.95 329.67ZM504.67 321.17L506.66 321.17L506.85 322.18L506.98 322.18C507.49 321.51 508.21 321 509.48 321C511.5 321 512.8 322.3 512.8 324.52L512.8 329.67L510.62 329.67L510.62 324.96C510.62 323.57 509.82 322.89 508.8 322.89C507.76 322.89 506.85 323.55 506.85 325.07L506.85 329.67L504.67 329.67L504.67 321.17ZM514.24 318.78C514.24 318.03 514.87 317.45 515.59 317.45C516.3 317.45 516.9 318.03 516.9 318.78C516.9 319.47 516.3 320.08 515.59 320.08C514.87 320.08 514.24 319.47 514.24 318.78ZM514.5 321.17L516.67 321.17L516.67 329.67L514.5 329.67L514.5 321.17ZM518.03 325.46C518.03 322.79 519.97 321 522.45 321C524.42 321 526.29 322.06 526.56 324.28L524.39 324.28C524.2 323.5 523.47 322.89 522.45 322.89C521.16 322.89 520.2 323.94 520.2 325.46C520.2 326.95 521.09 327.96 522.48 327.96C523.47 327.96 524.13 327.51 524.4 326.73L526.6 326.73C526.31 328.64 524.69 329.84 522.48 329.84C519.83 329.84 518.03 328.02 518.03 325.46ZM535.99 328.04L535.99 329.67L535.07 329.67C534.27 329.67 533.64 329.44 533.35 328.65C532.77 329.38 531.89 329.84 530.55 329.84C528.81 329.84 527.54 329.03 527.54 327.34C527.54 325.71 528.78 324.91 530.34 324.76L532.99 324.49L532.99 324.13C532.99 323.2 532.4 322.74 531.57 322.74C530.65 322.74 530.17 323.25 530.04 324.01L527.86 324.01C528.03 322.24 529.39 321 531.57 321C533.55 321 535.17 322.01 535.17 324.28L535.17 327.39C535.17 327.84 535.37 328.04 535.78 328.04L535.99 328.04ZM532.99 325.98L531.09 326.19C530.31 326.27 529.71 326.6 529.71 327.26C529.71 327.94 530.24 328.18 530.92 328.18C531.84 328.18 532.99 327.74 532.99 326.39L532.99 325.98ZM537.83 327.36L537.83 322.89L536.01 322.89L536.01 321.17L536.59 321.17C537.63 321.17 538.04 320.8 538.04 319.88L538.04 318.86L540.01 318.86L540.01 321.17L542.24 321.17L542.24 322.89L540.01 322.89L540.01 327.07C540.01 327.55 540.13 328.13 541.15 328.13C541.4 328.13 541.73 328.07 541.98 328.01L541.98 329.66C541.61 329.74 541.1 329.84 540.48 329.84C538.1 329.84 537.83 328.3 537.83 327.36ZM543.09 318.78C543.09 318.03 543.72 317.45 544.44 317.45C545.15 317.45 545.75 318.03 545.75 318.78C545.75 319.47 545.15 320.08 544.44 320.08C543.72 320.08 543.09 319.47 543.09 318.78ZM543.35 321.17L545.52 321.17L545.52 329.67L543.35 329.67L543.35 321.17ZM546.88 325.41C546.88 322.79 548.82 321 551.37 321C553.92 321 555.86 322.81 555.86 325.41C555.86 328.04 553.93 329.84 551.37 329.84C548.83 329.84 546.88 328.02 546.88 325.41ZM553.7 325.41C553.7 324 552.76 322.89 551.37 322.89C549.97 322.89 549.05 324 549.05 325.41C549.05 326.83 549.97 327.96 551.37 327.96C552.78 327.96 553.7 326.83 553.7 325.41ZM557.23 321.17L559.22 321.17L559.4 322.18L559.54 322.18C560.05 321.51 560.76 321 562.04 321C564.06 321 565.35 322.3 565.35 324.52L565.35 329.67L563.18 329.67L563.18 324.96C563.18 323.57 562.38 322.89 561.36 322.89C560.32 322.89 559.4 323.55 559.4 325.07L559.4 329.67L557.23 329.67L557.23 321.17Z" />
	<path id="Layer" fill-rule="evenodd" class="shp1" d="M461.3 142.77L458.72 154.67L456.23 154.67L453.89 146.5L453.75 146.5L451.44 154.67L448.96 154.67L446.36 142.77L448.53 142.77L450.28 151.38L450.42 151.38L452.65 143.62L455.03 143.62L457.22 151.38L457.36 151.38L459.14 142.77L461.3 142.77ZM470.02 151.99C469.68 153.74 468.21 154.84 466.06 154.84C463.52 154.84 461.69 153.13 461.69 150.51C461.69 147.7 463.63 146 465.97 146C468.06 146 470 147.33 470 150.37C470 150.58 469.98 150.76 469.97 151L463.85 151C463.93 152.22 464.73 153.11 466.06 153.11C467.01 153.11 467.69 152.72 467.93 151.99L470.02 151.99ZM463.86 149.54L467.93 149.54C467.88 148.49 467.09 147.74 465.97 147.74C464.8 147.74 464.02 148.52 463.86 149.54ZM480.11 150.41C480.11 153.11 478.39 154.84 476.11 154.84C474.79 154.84 473.99 154.21 473.58 153.67L473.43 153.67L473.24 154.67L471.47 154.67L471.47 142.6L473.65 142.6L473.65 146.97C474.11 146.46 474.96 146 476.11 146C478.34 146 480.11 147.63 480.11 150.41ZM477.93 150.41C477.93 148.91 477.06 147.89 475.77 147.89C474.48 147.89 473.65 148.91 473.65 150.41C473.65 151.94 474.48 152.96 475.77 152.96C477.06 152.96 477.93 151.94 477.93 150.41ZM494.09 154.67L492.76 153.23C491.86 154.18 490.81 154.84 489.26 154.84C487.37 154.84 485.89 153.74 485.89 151.95C485.89 150.3 486.95 149.42 488 148.72L488.38 148.49L488.36 148.47C487.6 147.63 486.76 146.82 486.76 145.51C486.76 143.86 488.22 142.6 490.18 142.6C492.15 142.6 493.58 143.67 493.58 145.36C493.58 146.7 492.76 147.53 491.59 148.37L491.03 148.76L492.66 150.54L494.04 148.82L496.23 148.82L493.87 151.88L496.4 154.67L494.09 154.67ZM489.86 147.48L490.33 147.16C491.08 146.67 491.62 146.21 491.62 145.49C491.62 144.73 490.98 144.27 490.2 144.27C489.35 144.27 488.75 144.8 488.75 145.54C488.75 146.28 489.19 146.77 489.84 147.45L489.86 147.48ZM491.54 151.92L489.58 149.79L489.23 150.03C488.51 150.54 487.99 151.03 487.99 151.8C487.99 152.55 488.6 153.07 489.41 153.07C490.28 153.07 490.91 152.65 491.54 151.92ZM453.8 168.35C454.16 168.81 454.35 169.35 454.35 169.94C454.35 171.75 452.8 172.8 450.78 172.8C450.25 172.8 449.77 172.73 449.35 172.61C449.08 172.75 448.94 172.94 448.94 173.17C448.94 173.67 449.49 173.82 450.06 173.82L451.73 173.82C453.77 173.82 454.82 174.81 454.82 176.34C454.82 178.16 453.29 179.24 450.83 179.24C448.13 179.24 446.87 177.9 446.7 176.39L447.99 175.25C447.39 174.93 447.02 174.36 447.02 173.68C447.02 172.88 447.55 172.36 448.16 172.02C447.53 171.53 447.16 170.83 447.16 169.94C447.16 168.28 448.5 167 450.68 167C451.42 167 452.1 167.16 452.65 167.43C453.19 167.16 453.77 166.68 454.11 166.22L455.18 167.41C454.91 167.7 454.38 168.07 453.8 168.35ZM452.27 169.91C452.27 169.13 451.71 168.57 450.78 168.57C449.82 168.57 449.23 169.13 449.23 169.91C449.23 170.66 449.82 171.22 450.78 171.22C451.71 171.22 452.27 170.66 452.27 169.91ZM451.46 175.52L449.91 175.52L448.79 176.47C448.98 177.07 449.6 177.61 450.85 177.61C451.88 177.61 452.75 177.24 452.75 176.46C452.75 175.74 452.09 175.52 451.46 175.52ZM456.12 167.17L458.09 167.17L458.29 168.38L458.43 168.38C458.95 167.53 459.53 167 460.96 167L461.57 167L461.57 169.18C461.27 169.13 460.96 169.11 460.65 169.11C458.78 169.11 458.29 170.49 458.29 171.71L458.29 175.67L456.12 175.67L456.12 167.17ZM470.4 174.04L470.4 175.67L469.48 175.67C468.68 175.67 468.05 175.44 467.76 174.65C467.19 175.38 466.3 175.84 464.96 175.84C463.22 175.84 461.95 175.03 461.95 173.34C461.95 171.71 463.19 170.91 464.75 170.76L467.41 170.49L467.41 170.13C467.41 169.2 466.81 168.74 465.98 168.74C465.06 168.74 464.58 169.25 464.45 170.01L462.27 170.01C462.44 168.24 463.8 167 465.98 167C467.97 167 469.58 168.01 469.58 170.28L469.58 173.4C469.58 173.84 469.79 174.04 470.19 174.04L470.4 174.04ZM467.41 171.98L465.5 172.19C464.72 172.27 464.13 172.6 464.13 173.26C464.13 173.94 464.65 174.18 465.33 174.18C466.25 174.18 467.41 173.74 467.41 172.39L467.41 171.98ZM480.11 171.44C480.11 174.21 478.34 175.84 476.11 175.84C474.95 175.84 474.11 175.38 473.65 174.87L473.65 179.07L471.47 179.07L471.47 167.17L473.24 167.17L473.43 168.18L473.58 168.18C473.99 167.63 474.79 167 476.11 167C478.39 167 480.11 168.74 480.11 171.44ZM477.93 171.44C477.93 169.91 477.06 168.89 475.77 168.89C474.48 168.89 473.65 169.91 473.65 171.44C473.65 172.94 474.48 173.96 475.77 173.96C477.06 173.96 477.93 172.94 477.93 171.44ZM489.62 170.52L489.62 175.67L487.45 175.67L487.45 170.96C487.45 169.57 486.65 168.89 485.63 168.89C484.59 168.89 483.67 169.55 483.67 171.07L483.67 175.67L481.5 175.67L481.5 163.6L483.67 163.6L483.67 168.18L483.81 168.18C484.32 167.51 485.03 167 486.31 167C488.33 167 489.62 168.29 489.62 170.52ZM491.07 164.78C491.07 164.03 491.7 163.45 492.41 163.45C493.13 163.45 493.72 164.03 493.72 164.78C493.72 165.47 493.13 166.09 492.41 166.09C491.7 166.09 491.07 165.47 491.07 164.78ZM491.32 167.17L493.5 167.17L493.5 175.67L491.32 175.67L491.32 167.17ZM494.85 171.46C494.85 168.79 496.79 167 499.27 167C501.25 167 503.12 168.06 503.39 170.28L501.21 170.28C501.02 169.5 500.29 168.89 499.27 168.89C497.98 168.89 497.03 169.94 497.03 171.46C497.03 172.95 497.91 173.96 499.31 173.96C500.29 173.96 500.96 173.51 501.23 172.73L503.42 172.73C503.13 174.64 501.52 175.84 499.31 175.84C496.65 175.84 494.85 174.02 494.85 171.46ZM517.52 163.6L517.52 175.67L515.75 175.67L515.56 174.67L515.41 174.67C515 175.21 514.2 175.84 512.88 175.84C510.6 175.84 508.88 174.11 508.88 171.41C508.88 168.63 510.65 167 512.88 167C514.03 167 514.88 167.46 515.34 167.97L515.34 163.6L517.52 163.6ZM515.34 171.41C515.34 169.91 514.51 168.89 513.22 168.89C511.92 168.89 511.06 169.91 511.06 171.41C511.06 172.94 511.92 173.96 513.22 173.96C514.51 173.96 515.34 172.94 515.34 171.41ZM527.2 172.99C526.86 174.74 525.4 175.84 523.24 175.84C520.71 175.84 518.87 174.13 518.87 171.51C518.87 168.7 520.81 167 523.16 167C525.25 167 527.19 168.33 527.19 171.37C527.19 171.58 527.17 171.76 527.15 172L521.03 172C521.12 173.22 521.92 174.11 523.24 174.11C524.2 174.11 524.88 173.72 525.11 172.99L527.2 172.99ZM521.05 170.54L525.11 170.54C525.06 169.49 524.28 168.74 523.16 168.74C521.99 168.74 521.2 169.52 521.05 170.54ZM528.25 172.95L530.34 172.95C530.46 173.87 531.14 174.23 532.01 174.23C532.67 174.23 533.25 173.97 533.25 173.36C533.25 172.72 532.67 172.44 531.75 172.21L530.96 172C529.82 171.73 528.52 171.27 528.52 169.6C528.52 167.9 530.02 167 531.7 167C534 167 535.05 168.21 535.17 169.6L533.08 169.6C533 168.99 532.52 168.62 531.72 168.62C531.06 168.62 530.6 168.94 530.6 169.49C530.6 170.08 531.18 170.23 531.99 170.45L532.79 170.66C534.27 171.03 535.33 171.71 535.33 173.31C535.33 175.06 533.83 175.84 532.03 175.84C529.63 175.84 528.37 174.7 528.25 172.95ZM536.47 164.78C536.47 164.03 537.1 163.45 537.81 163.45C538.53 163.45 539.12 164.03 539.12 164.78C539.12 165.47 538.53 166.09 537.81 166.09C537.1 166.09 536.47 165.47 536.47 164.78ZM536.72 167.17L538.9 167.17L538.9 175.67L536.72 175.67L536.72 167.17ZM547.26 168.35C547.62 168.81 547.8 169.35 547.8 169.94C547.8 171.75 546.26 172.8 544.23 172.8C543.71 172.8 543.23 172.73 542.81 172.61C542.53 172.75 542.4 172.94 542.4 173.17C542.4 173.67 542.94 173.82 543.52 173.82L545.19 173.82C547.23 173.82 548.28 174.81 548.28 176.34C548.28 178.16 546.75 179.24 544.28 179.24C541.58 179.24 540.32 177.9 540.15 176.39L541.45 175.25C540.85 174.93 540.48 174.36 540.48 173.68C540.48 172.88 541 172.36 541.62 172.02C540.99 171.53 540.61 170.83 540.61 169.94C540.61 168.28 541.96 167 544.13 167C544.88 167 545.56 167.16 546.1 167.43C546.65 167.16 547.23 166.68 547.57 166.22L548.64 167.41C548.37 167.7 547.84 168.07 547.26 168.35ZM545.73 169.91C545.73 169.13 545.17 168.57 544.23 168.57C543.28 168.57 542.69 169.13 542.69 169.91C542.69 170.66 543.28 171.22 544.23 171.22C545.17 171.22 545.73 170.66 545.73 169.91ZM544.91 175.52L543.37 175.52L542.25 176.47C542.43 177.07 543.06 177.61 544.3 177.61C545.34 177.61 546.21 177.24 546.21 176.46C546.21 175.74 545.54 175.52 544.91 175.52ZM549.57 167.17L551.56 167.17L551.75 168.18L551.88 168.18C552.39 167.51 553.11 167 554.38 167C556.41 167 557.7 168.29 557.7 170.52L557.7 175.67L555.52 175.67L555.52 170.96C555.52 169.57 554.72 168.89 553.7 168.89C552.67 168.89 551.75 169.55 551.75 171.07L551.75 175.67L549.57 175.67L549.57 167.17Z" />
	<path id="Layer" fill-rule="evenodd" class="shp1" d="M458.21 21.54L458.21 28L456.42 28L456.2 26.86L456.06 26.86C455.59 27.34 454.45 28.17 452.51 28.17C449.08 28.17 446.88 25.7 446.88 22.22C446.88 18.6 449.35 15.93 452.92 15.93C455.98 15.93 457.78 17.61 458.1 19.74L455.66 19.74C455.3 18.67 454.33 18 452.92 18C450.62 18 449.18 19.79 449.18 22.22C449.18 24.52 450.5 26.16 452.8 26.16C454.57 26.16 455.98 25.38 455.98 23.8L455.98 23.29L452.82 23.29L452.82 21.54L458.21 21.54ZM468.18 25.31C467.83 27.06 466.37 28.17 464.21 28.17C461.68 28.17 459.85 26.45 459.85 23.84C459.85 21.03 461.78 19.33 464.13 19.33C466.22 19.33 468.16 20.66 468.16 23.7C468.16 23.9 468.14 24.09 468.12 24.33L462 24.33C462.09 25.55 462.89 26.44 464.21 26.44C465.17 26.44 465.85 26.05 466.08 25.31L468.18 25.31ZM462.02 22.87L466.08 22.87C466.03 21.81 465.25 21.06 464.13 21.06C462.96 21.06 462.17 21.85 462.02 22.87ZM469.22 25.28L471.31 25.28C471.43 26.2 472.11 26.55 472.98 26.55C473.64 26.55 474.22 26.3 474.22 25.69C474.22 25.04 473.64 24.77 472.73 24.53L471.93 24.33C470.79 24.06 469.5 23.6 469.5 21.93C469.5 20.23 470.99 19.33 472.68 19.33C474.97 19.33 476.02 20.54 476.14 21.93L474.05 21.93C473.97 21.32 473.49 20.95 472.69 20.95C472.03 20.95 471.57 21.27 471.57 21.81C471.57 22.41 472.15 22.56 472.96 22.78L473.76 22.98C475.24 23.36 476.3 24.04 476.3 25.64C476.3 27.39 474.8 28.17 473 28.17C470.6 28.17 469.34 27.03 469.22 25.28ZM478.44 25.69L478.44 21.22L476.62 21.22L476.62 19.5L477.19 19.5C478.23 19.5 478.64 19.13 478.64 18.21L478.64 17.19L480.61 17.19L480.61 19.5L482.84 19.5L482.84 21.22L480.61 21.22L480.61 25.4C480.61 25.88 480.73 26.45 481.75 26.45C482.01 26.45 482.33 26.4 482.58 26.33L482.58 27.98C482.21 28.07 481.7 28.17 481.09 28.17C478.71 28.17 478.44 26.62 478.44 25.69ZM483.7 17.1C483.7 16.35 484.33 15.78 485.04 15.78C485.75 15.78 486.35 16.35 486.35 17.1C486.35 17.8 485.75 18.41 485.04 18.41C484.33 18.41 483.7 17.8 483.7 17.1ZM483.95 19.5L486.13 19.5L486.13 28L483.95 28L483.95 19.5ZM487.48 23.73C487.48 21.12 489.42 19.33 491.97 19.33C494.52 19.33 496.46 21.13 496.46 23.73C496.46 26.37 494.54 28.17 491.97 28.17C489.44 28.17 487.48 26.35 487.48 23.73ZM494.3 23.73C494.3 22.32 493.37 21.22 491.97 21.22C490.58 21.22 489.66 22.32 489.66 23.73C489.66 25.16 490.58 26.28 491.97 26.28C493.38 26.28 494.3 25.16 494.3 23.73ZM497.83 19.5L499.82 19.5L500.01 20.5L500.14 20.5C500.65 19.84 501.37 19.33 502.64 19.33C504.67 19.33 505.96 20.62 505.96 22.85L505.96 28L503.78 28L503.78 23.29C503.78 21.9 502.98 21.22 501.96 21.22C500.93 21.22 500.01 21.88 500.01 23.39L500.01 28L497.83 28L497.83 19.5ZM520.42 15.93L520.42 28L518.65 28L518.47 27L518.31 27C517.91 27.54 517.11 28.17 515.78 28.17C513.5 28.17 511.79 26.44 511.79 23.73C511.79 20.96 513.55 19.33 515.78 19.33C516.94 19.33 517.79 19.79 518.25 20.3L518.25 15.93L520.42 15.93ZM518.25 23.73C518.25 22.24 517.41 21.22 516.12 21.22C514.83 21.22 513.96 22.24 513.96 23.73C513.96 25.26 514.83 26.28 516.12 26.28C517.41 26.28 518.25 25.26 518.25 23.73ZM530.11 25.31C529.77 27.06 528.31 28.17 526.15 28.17C523.62 28.17 521.78 26.45 521.78 23.84C521.78 21.03 523.72 19.33 526.06 19.33C528.15 19.33 530.09 20.66 530.09 23.7C530.09 23.9 530.08 24.09 530.06 24.33L523.94 24.33C524.02 25.55 524.82 26.44 526.15 26.44C527.1 26.44 527.78 26.05 528.02 25.31L530.11 25.31ZM523.96 22.87L528.02 22.87C527.97 21.81 527.18 21.06 526.06 21.06C524.89 21.06 524.11 21.85 523.96 22.87ZM544.61 23.77C544.61 26.54 542.85 28.17 540.62 28.17C539.46 28.17 538.61 27.71 538.15 27.2L538.15 31.4L535.98 31.4L535.98 19.5L537.75 19.5L537.93 20.5L538.09 20.5C538.49 19.96 539.29 19.33 540.62 19.33C542.9 19.33 544.61 21.06 544.61 23.77ZM542.44 23.77C542.44 22.24 541.57 21.22 540.28 21.22C538.99 21.22 538.15 22.24 538.15 23.77C538.15 25.26 538.99 26.28 540.28 26.28C541.57 26.28 542.44 25.26 542.44 23.77ZM545.99 19.5L547.96 19.5L548.16 20.71L548.3 20.71C548.83 19.86 549.4 19.33 550.83 19.33L551.44 19.33L551.44 21.51C551.14 21.45 550.83 21.44 550.53 21.44C548.66 21.44 548.16 22.81 548.16 24.04L548.16 28L545.99 28L545.99 19.5ZM551.91 23.73C551.91 21.12 553.85 19.33 556.4 19.33C558.95 19.33 560.88 21.13 560.88 23.73C560.88 26.37 558.96 28.17 556.4 28.17C553.86 28.17 551.91 26.35 551.91 23.73ZM558.73 23.73C558.73 22.32 557.79 21.22 556.4 21.22C555 21.22 554.08 22.32 554.08 23.73C554.08 25.16 555 26.28 556.4 26.28C557.81 26.28 558.73 25.16 558.73 23.73ZM562 17.1C562 16.35 562.63 15.78 563.34 15.78C564.06 15.78 564.65 16.35 564.65 17.1C564.65 17.8 564.06 18.41 563.34 18.41C562.63 18.41 562 17.8 562 17.1ZM560.27 31.38L560.27 29.77C560.52 29.84 560.84 29.87 561.1 29.87C562.12 29.87 562.25 29.29 562.25 28.83L562.25 19.5L564.43 19.5L564.43 29.09C564.43 30.02 564.14 31.57 561.76 31.57C561.15 31.57 560.64 31.47 560.27 31.38ZM574.12 25.31C573.77 27.06 572.31 28.17 570.15 28.17C567.62 28.17 565.78 26.45 565.78 23.84C565.78 21.03 567.72 19.33 570.07 19.33C572.16 19.33 574.1 20.66 574.1 23.7C574.1 23.9 574.08 24.09 574.06 24.33L567.94 24.33C568.03 25.55 568.83 26.44 570.15 26.44C571.11 26.44 571.79 26.05 572.02 25.31L574.12 25.31ZM567.96 22.87L572.02 22.87C571.97 21.81 571.19 21.06 570.07 21.06C568.9 21.06 568.11 21.85 567.96 22.87ZM576.48 25.69L576.48 21.22L574.66 21.22L574.66 19.5L575.23 19.5C576.27 19.5 576.68 19.13 576.68 18.21L576.68 17.19L578.65 17.19L578.65 19.5L580.88 19.5L580.88 21.22L578.65 21.22L578.65 25.4C578.65 25.88 578.77 26.45 579.79 26.45C580.04 26.45 580.37 26.4 580.62 26.33L580.62 27.98C580.25 28.07 579.74 28.17 579.13 28.17C576.75 28.17 576.48 26.62 576.48 25.69ZM455.08 49L453.75 47.56C452.85 48.51 451.8 49.17 450.25 49.17C448.36 49.17 446.88 48.06 446.88 46.28C446.88 44.63 447.94 43.75 448.99 43.05L449.37 42.81L449.35 42.8C448.58 41.96 447.75 41.15 447.75 39.84C447.75 38.19 449.21 36.93 451.17 36.93C453.14 36.93 454.57 38 454.57 39.68C454.57 41.03 453.75 41.86 452.58 42.69L452.02 43.08L453.65 44.87L455.03 43.15L457.22 43.15L454.86 46.21L457.39 49L455.08 49ZM450.85 41.81L451.32 41.49C452.07 40.99 452.61 40.53 452.61 39.82C452.61 39.05 451.97 38.6 451.19 38.6C450.33 38.6 449.74 39.12 449.74 39.87C449.74 40.6 450.18 41.09 450.83 41.77L450.85 41.81ZM452.53 46.25L450.57 44.12L450.22 44.36C449.5 44.87 448.98 45.36 448.98 46.13C448.98 46.88 449.59 47.4 450.4 47.4C451.27 47.4 451.9 46.98 452.53 46.25ZM462.78 44.78C462.78 42.12 464.72 40.33 467.2 40.33C469.17 40.33 471.04 41.38 471.32 43.61L469.14 43.61C468.95 42.83 468.22 42.22 467.2 42.22C465.91 42.22 464.96 43.27 464.96 44.78C464.96 46.28 465.84 47.28 467.24 47.28C468.22 47.28 468.88 46.84 469.16 46.06L471.35 46.06C471.06 47.96 469.45 49.17 467.24 49.17C464.58 49.17 462.78 47.35 462.78 44.78ZM472.21 44.73C472.21 42.12 474.15 40.33 476.7 40.33C479.25 40.33 481.19 42.13 481.19 44.73C481.19 47.37 479.27 49.17 476.7 49.17C474.17 49.17 472.21 47.35 472.21 44.73ZM479.03 44.73C479.03 43.32 478.09 42.22 476.7 42.22C475.31 42.22 474.39 43.32 474.39 44.73C474.39 46.16 475.31 47.28 476.7 47.28C478.11 47.28 479.03 46.16 479.03 44.73ZM490.58 47.37L490.58 49L489.67 49C488.87 49 488.24 48.76 487.95 47.98C487.37 48.71 486.49 49.17 485.14 49.17C483.41 49.17 482.13 48.35 482.13 46.67C482.13 45.04 483.38 44.24 484.94 44.09L487.59 43.81L487.59 43.46C487.59 42.52 487 42.06 486.16 42.06C485.25 42.06 484.77 42.57 484.63 43.34L482.46 43.34C482.63 41.57 483.99 40.33 486.16 40.33C488.15 40.33 489.77 41.33 489.77 43.61L489.77 46.72C489.77 47.16 489.97 47.37 490.38 47.37L490.58 47.37ZM487.59 45.31L485.69 45.52C484.91 45.6 484.31 45.92 484.31 46.59C484.31 47.27 484.84 47.5 485.52 47.5C486.44 47.5 487.59 47.06 487.59 45.72L487.59 45.31ZM491.17 44.78C491.17 42.12 493.11 40.33 495.59 40.33C497.56 40.33 499.43 41.38 499.7 43.61L497.53 43.61C497.34 42.83 496.61 42.22 495.59 42.22C494.3 42.22 493.35 43.27 493.35 44.78C493.35 46.28 494.23 47.28 495.62 47.28C496.61 47.28 497.27 46.84 497.54 46.06L499.74 46.06C499.45 47.96 497.83 49.17 495.62 49.17C492.97 49.17 491.17 47.35 491.17 44.78ZM509.14 43.85L509.14 49L506.97 49L506.97 44.29C506.97 42.9 506.17 42.22 505.15 42.22C504.11 42.22 503.19 42.88 503.19 44.39L503.19 49L501.02 49L501.02 36.93L503.19 36.93L503.19 41.5L503.33 41.5C503.84 40.84 504.55 40.33 505.83 40.33C507.85 40.33 509.14 41.62 509.14 43.85ZM510.59 38.1C510.59 37.35 511.22 36.78 511.93 36.78C512.65 36.78 513.24 37.35 513.24 38.1C513.24 38.8 512.65 39.41 511.93 39.41C511.22 39.41 510.59 38.8 510.59 38.1ZM510.85 40.5L513.02 40.5L513.02 49L510.85 49L510.85 40.5ZM514.71 40.5L516.7 40.5L516.89 41.5L517.02 41.5C517.53 40.84 518.25 40.33 519.52 40.33C521.55 40.33 522.84 41.62 522.84 43.85L522.84 49L520.66 49L520.66 44.29C520.66 42.9 519.86 42.22 518.84 42.22C517.81 42.22 516.89 42.88 516.89 44.39L516.89 49L514.71 49L514.71 40.5ZM531.08 41.67C531.43 42.13 531.62 42.68 531.62 43.27C531.62 45.07 530.07 46.13 528.05 46.13C527.52 46.13 527.05 46.06 526.62 45.94C526.35 46.08 526.21 46.26 526.21 46.5C526.21 46.99 526.76 47.15 527.34 47.15L529 47.15C531.04 47.15 532.1 48.13 532.1 49.66C532.1 51.48 530.57 52.57 528.1 52.57C525.4 52.57 524.14 51.23 523.97 49.71L525.26 48.58C524.67 48.25 524.29 47.69 524.29 47.01C524.29 46.21 524.82 45.69 525.43 45.34C524.8 44.85 524.43 44.16 524.43 43.27C524.43 41.6 525.77 40.33 527.95 40.33C528.7 40.33 529.38 40.48 529.92 40.76C530.46 40.48 531.04 40.01 531.38 39.55L532.45 40.74C532.18 41.03 531.65 41.4 531.08 41.67ZM529.55 43.24C529.55 42.45 528.99 41.89 528.05 41.89C527.1 41.89 526.5 42.45 526.5 43.24C526.5 43.98 527.1 44.55 528.05 44.55C528.99 44.55 529.55 43.98 529.55 43.24ZM528.73 48.85L527.18 48.85L526.06 49.8C526.25 50.39 526.88 50.94 528.12 50.94C529.15 50.94 530.02 50.56 530.02 49.78C530.02 49.07 529.36 48.85 528.73 48.85Z" />
	<path id="Layer" fill-rule="evenodd" class="shp1" d="M454.18 365.8L449.72 365.8L448.75 368.67L446.36 368.67L450.61 356.77L453.31 356.77L457.54 368.67L455.15 368.67L454.18 365.8ZM453.56 363.95L452.02 359.36L451.88 359.36L450.33 363.95L453.56 363.95ZM466.53 368.67L464.54 368.67L464.36 367.67L464.22 367.67C463.71 368.33 463 368.84 461.72 368.84C459.7 368.84 458.41 367.55 458.41 365.32L458.41 360.17L460.58 360.17L460.58 364.88C460.58 366.28 461.38 366.96 462.42 366.96C463.44 366.96 464.36 366.29 464.36 364.78L464.36 360.17L466.53 360.17L466.53 368.67ZM469.31 366.36L469.31 361.89L467.49 361.89L467.49 360.17L468.06 360.17C469.1 360.17 469.51 359.8 469.51 358.88L469.51 357.86L471.48 357.86L471.48 360.17L473.71 360.17L473.71 361.89L471.48 361.89L471.48 366.07C471.48 366.55 471.6 367.13 472.62 367.13C472.88 367.13 473.2 367.07 473.45 367.01L473.45 368.66C473.08 368.74 472.57 368.84 471.96 368.84C469.58 368.84 469.31 367.3 469.31 366.36ZM474.82 360.17L476.8 360.17L477 361.38L477.13 361.38C477.66 360.53 478.24 360 479.67 360L480.28 360L480.28 362.18C479.97 362.13 479.67 362.11 479.36 362.11C477.49 362.11 477 363.49 477 364.71L477 368.67L474.82 368.67L474.82 360.17ZM489.07 365.99C488.73 367.74 487.27 368.84 485.11 368.84C482.58 368.84 480.74 367.13 480.74 364.51C480.74 361.7 482.68 360 485.03 360C487.12 360 489.06 361.33 489.06 364.37C489.06 364.58 489.04 364.76 489.02 365L482.9 365C482.99 366.23 483.79 367.11 485.11 367.11C486.06 367.11 486.75 366.72 486.98 365.99L489.07 365.99ZM482.92 363.54L486.98 363.54C486.93 362.49 486.15 361.74 485.03 361.74C483.86 361.74 483.07 362.52 482.92 363.54ZM490.12 365.95L492.21 365.95C492.33 366.87 493.01 367.23 493.88 367.23C494.54 367.23 495.12 366.97 495.12 366.36C495.12 365.71 494.54 365.44 493.63 365.2L492.83 365C491.69 364.73 490.39 364.27 490.39 362.6C490.39 360.9 491.89 360 493.57 360C495.87 360 496.92 361.21 497.04 362.6L494.95 362.6C494.87 361.99 494.39 361.62 493.59 361.62C492.93 361.62 492.47 361.94 492.47 362.49C492.47 363.08 493.05 363.23 493.86 363.45L494.66 363.66C496.14 364.03 497.19 364.71 497.19 366.31C497.19 368.06 495.7 368.84 493.9 368.84C491.5 368.84 490.24 367.7 490.12 365.95Z" />
	<path id="Layer" class="shp0" d="M439 31.67L305.9 31.67L266.27 75.63" />
	<path id="Layer" class="shp0" d="M439 80.67L341.35 80.67" />
	<path id="Layer" fill-rule="evenodd" class="shp1" d="M449.42 82.35L447.17 82.35L447.17 70.45L449.42 70.45L449.42 82.35ZM451.43 73.85L453.42 73.85L453.61 74.86L453.75 74.86C454.2 74.23 454.92 73.68 456.07 73.68C457.42 73.68 458.01 74.41 458.3 75.03L458.44 75.03C458.9 74.36 459.64 73.68 461.09 73.68C462.84 73.68 463.96 74.74 463.96 76.79L463.96 82.35L461.79 82.35L461.79 77.2C461.79 76.11 461.14 75.57 460.32 75.57C459.41 75.57 458.78 76.25 458.78 77.32L458.78 82.35L456.6 82.35L456.6 77.27C456.6 76.15 455.97 75.57 455.16 75.57C454.37 75.57 453.61 76.13 453.61 77.3L453.61 82.35L451.43 82.35L451.43 73.85ZM473.75 80.72L473.75 82.35L472.83 82.35C472.04 82.35 471.41 82.11 471.12 81.33C470.54 82.06 469.65 82.52 468.31 82.52C466.58 82.52 465.3 81.71 465.3 80.02C465.3 78.39 466.54 77.59 468.11 77.44L470.76 77.17L470.76 76.81C470.76 75.88 470.17 75.42 469.33 75.42C468.41 75.42 467.94 75.93 467.8 76.69L465.63 76.69C465.8 74.92 467.16 73.68 469.33 73.68C471.32 73.68 472.94 74.69 472.94 76.96L472.94 80.07C472.94 80.52 473.14 80.72 473.55 80.72L473.75 80.72ZM470.76 78.66L468.86 78.87C468.07 78.95 467.48 79.28 467.48 79.94C467.48 80.62 468.01 80.86 468.69 80.86C469.6 80.86 470.76 80.41 470.76 79.07L470.76 78.66ZM481.49 75.03C481.85 75.48 482.04 76.03 482.04 76.62C482.04 78.43 480.49 79.48 478.47 79.48C477.94 79.48 477.46 79.41 477.04 79.29C476.77 79.43 476.63 79.62 476.63 79.85C476.63 80.35 477.17 80.5 477.75 80.5L479.42 80.5C481.46 80.5 482.51 81.49 482.51 83.02C482.51 84.83 480.98 85.92 478.52 85.92C475.81 85.92 474.56 84.58 474.39 83.07L475.68 81.93C475.08 81.6 474.71 81.04 474.71 80.36C474.71 79.56 475.24 79.04 475.85 78.7C475.22 78.2 474.85 77.51 474.85 76.62C474.85 74.96 476.19 73.68 478.36 73.68C479.11 73.68 479.79 73.84 480.34 74.11C480.88 73.84 481.46 73.36 481.8 72.9L482.87 74.09C482.6 74.38 482.07 74.75 481.49 75.03ZM479.96 76.59C479.96 75.81 479.4 75.25 478.47 75.25C477.51 75.25 476.92 75.81 476.92 76.59C476.92 77.34 477.51 77.9 478.47 77.9C479.4 77.9 479.96 77.34 479.96 76.59ZM479.15 82.2L477.6 82.2L476.48 83.15C476.66 83.75 477.29 84.29 478.53 84.29C479.57 84.29 480.44 83.92 480.44 83.14C480.44 82.42 479.77 82.2 479.15 82.2ZM491.56 79.67C491.22 81.42 489.76 82.52 487.6 82.52C485.07 82.52 483.23 80.81 483.23 78.19C483.23 75.38 485.17 73.68 487.52 73.68C489.61 73.68 491.55 75.01 491.55 78.05C491.55 78.26 491.53 78.44 491.51 78.68L485.39 78.68C485.48 79.9 486.28 80.79 487.6 80.79C488.56 80.79 489.24 80.4 489.47 79.67L491.56 79.67ZM485.41 77.22L489.47 77.22C489.42 76.16 488.64 75.42 487.52 75.42C486.35 75.42 485.56 76.2 485.41 77.22ZM505.57 82.35L504.25 80.91C503.35 81.86 502.29 82.52 500.75 82.52C498.86 82.52 497.38 81.42 497.38 79.63C497.38 77.98 498.44 77.1 499.49 76.4L499.86 76.16L499.85 76.15C499.08 75.31 498.25 74.5 498.25 73.19C498.25 71.54 499.71 70.28 501.67 70.28C503.64 70.28 505.06 71.35 505.06 73.04C505.06 74.38 504.25 75.21 503.08 76.05L502.51 76.44L504.15 78.22L505.52 76.5L507.72 76.5L505.35 79.56L507.89 82.35L505.57 82.35ZM501.34 75.16L501.82 74.84C502.57 74.35 503.11 73.89 503.11 73.17C503.11 72.41 502.46 71.95 501.68 71.95C500.83 71.95 500.24 72.48 500.24 73.22C500.24 73.95 500.68 74.45 501.32 75.13L501.34 75.16ZM503.02 79.6L501.07 77.47L500.71 77.71C500 78.22 499.47 78.71 499.47 79.48C499.47 80.23 500.08 80.75 500.9 80.75C501.77 80.75 502.4 80.33 503.02 79.6ZM512.87 73.85L515.12 73.85L517.38 80.09L517.51 80.09L519.74 73.85L521.97 73.85L518.72 82.35L516.12 82.35L512.87 73.85ZM522.64 71.46C522.64 70.71 523.27 70.13 523.99 70.13C524.7 70.13 525.29 70.71 525.29 71.46C525.29 72.15 524.7 72.76 523.99 72.76C523.27 72.76 522.64 72.15 522.64 71.46ZM522.9 73.85L525.07 73.85L525.07 82.35L522.9 82.35L522.9 73.85ZM535.08 70.28L535.08 82.35L533.31 82.35L533.12 81.35L532.97 81.35C532.56 81.89 531.76 82.52 530.44 82.52C528.16 82.52 526.44 80.79 526.44 78.09C526.44 75.31 528.21 73.68 530.44 73.68C531.59 73.68 532.44 74.14 532.9 74.65L532.9 70.28L535.08 70.28ZM532.9 78.09C532.9 76.59 532.07 75.57 530.78 75.57C529.49 75.57 528.62 76.59 528.62 78.09C528.62 79.62 529.49 80.64 530.78 80.64C532.07 80.64 532.9 79.62 532.9 78.09ZM544.77 79.67C544.43 81.42 542.96 82.52 540.8 82.52C538.27 82.52 536.44 80.81 536.44 78.19C536.44 75.38 538.37 73.68 540.72 73.68C542.81 73.68 544.75 75.01 544.75 78.05C544.75 78.26 544.73 78.44 544.72 78.68L538.6 78.68C538.68 79.9 539.48 80.79 540.8 80.79C541.76 80.79 542.44 80.4 542.67 79.67L544.77 79.67ZM538.61 77.22L542.67 77.22C542.62 76.16 541.84 75.42 540.72 75.42C539.55 75.42 538.76 76.2 538.61 77.22ZM545.8 78.09C545.8 75.47 547.74 73.68 550.29 73.68C552.84 73.68 554.77 75.48 554.77 78.09C554.77 80.72 552.85 82.52 550.29 82.52C547.75 82.52 545.8 80.7 545.8 78.09ZM552.62 78.09C552.62 76.67 551.68 75.57 550.29 75.57C548.89 75.57 547.98 76.67 547.98 78.09C547.98 79.51 548.89 80.64 550.29 80.64C551.7 80.64 552.62 79.51 552.62 78.09Z" />
	<path id="Layer" class="shp0" d="M427 152.17L439 152.17" />
	<path id="Layer" class="shp0" d="M401 315.17L443 315.17" />
	<path id="Layer" class="shp0" d="M439 366.67L268.64 366.67L257 354.67" />
</svg>